<svg width="21" height="18" viewBox="0 0 21 18" fill="none" xmlns="http://www.w3.org/2000/svg">
<path fill-rule="evenodd" clip-rule="evenodd" d="M5.20975 10.4089L0.370922 8.63093C-0.120548 8.44963 -0.124818 7.76656 0.365252 7.5805L20.2239 0.038623C20.6449 -0.121668 21.0793 0.241433 20.9876 0.676686L17.4239 17.5528C17.3399 17.9512 16.8653 18.1319 16.5304 17.8923L11.6655 14.4151C11.37 14.204 10.9673 14.2153 10.6846 14.4421L7.98735 16.6068C7.67424 16.8588 7.20251 16.7184 7.08267 16.3386L5.20975 10.4089ZM16.2377 3.72842L6.78083 9.46243C6.41837 9.68268 6.24771 10.1136 6.36482 10.517L7.38731 14.054C7.4599 14.3046 7.82943 14.2789 7.86464 14.0199L8.1305 12.0803C8.18062 11.7151 8.35758 11.3787 8.63191 11.1273L16.4366 3.98518C16.5825 3.85191 16.4077 3.62567 16.2377 3.72842Z" fill="white"/>
</svg>
