<svg width="21" height="22" viewBox="0 0 21 22" fill="none" xmlns="http://www.w3.org/2000/svg">
<path d="M18.8767 2.4612C17.1307 0.756276 14.308 -0.0698226 10.4854 0.00461642C6.63102 0.0801217 4.05456 0.75395 2.37717 2.12526C0.755345 3.45101 0 5.39098 0 8.23042V11.1283C0 14.4804 1.80341 18.1656 5.25015 18.7232C5.64806 18.7881 6.02291 18.5186 6.08753 18.1222C6.15214 17.726 5.882 17.3525 5.48409 17.2881C2.87016 16.8653 1.4597 13.7988 1.4597 11.1283V8.23042C1.4597 4.15896 2.97438 1.60583 10.514 1.45812C13.9321 1.39066 16.3992 2.07796 17.8546 3.49928C18.9888 4.60704 19.5402 6.15456 19.5402 8.23042V11.1283C19.5402 15.5165 17.5627 17.452 12.4907 18.022H8.89423C8.70068 18.022 8.51501 18.0985 8.37818 18.2349L5.84405 20.759C5.55902 21.0429 5.55902 21.5032 5.84405 21.7871C5.98652 21.929 6.17336 22 6.3601 22C6.54684 22 6.73369 21.9291 6.87615 21.7871L9.19659 19.4759H12.5315C12.5584 19.4759 12.5853 19.4744 12.6121 19.4714C15.5147 19.1503 17.5025 18.3978 18.8673 17.1033C20.3024 15.7421 21 13.7877 21 11.1282V8.23042C21 5.7783 20.2856 3.83726 18.8767 2.4612Z" fill="white"/>
<path d="M10.775 4.54971C10.7751 4.54971 10.7751 4.54971 10.7753 4.54971C12.024 4.54971 13.1979 5.03604 14.0809 5.91903C14.964 6.80211 15.4503 7.97625 15.4502 9.22509C15.4502 9.65305 15.797 10 16.225 10C16.2251 10 16.2251 10 16.2251 10C16.653 10 17 9.65315 17 9.2252C17.0001 7.56235 16.3526 5.999 15.1768 4.8232C14.0011 3.64741 12.4381 3 10.7753 3C10.7752 3 10.7749 3 10.7748 3C10.3468 3 10 3.34695 10 3.77491C10.0001 4.20276 10.3471 4.54971 10.775 4.54971Z" fill="white"/>
<path d="M10.7249 7.45012C11.7311 7.45031 12.5498 8.26895 12.5499 9.27504C12.55 9.67546 12.8745 10.0001 13.2751 10C13.6756 10 14.0001 9.67527 14 9.27485C13.9997 7.46935 12.5307 6.00029 10.7251 6H10.725C10.3246 6 10.0001 6.32454 10 6.72496C10 7.12539 10.3245 7.45012 10.7249 7.45012Z" fill="white"/>
<path d="M7.50449 8.35154C7.17673 8.57567 7.09266 9.02306 7.31669 9.35081C7.54072 9.67856 7.98821 9.76254 8.31597 9.53851C8.57374 9.36231 9.17749 8.94953 9.13512 8.12435C9.10827 7.63047 8.6628 6.9253 8.29382 6.42068C7.75411 5.68235 7.28899 5.23765 6.91426 5.0998C6.56436 4.96952 6.19845 4.96674 5.82593 5.09175C5.05433 5.35173 4.4941 5.82155 4.20594 6.4504C3.92535 7.06258 3.93158 7.76611 4.22406 8.48536C4.91485 10.18 5.88191 11.6637 7.10483 12.9014C8.33619 14.1178 9.81977 15.0849 11.5151 15.7761C11.882 15.9253 12.2449 16 12.5938 16C12.9283 16 13.2499 15.9314 13.5496 15.794C14.1785 15.5057 14.6482 14.9456 14.9085 14.1731C15.0331 13.8014 15.0303 13.4357 14.9011 13.0882C14.7623 12.7108 14.3175 12.2457 13.5792 11.706C13.0745 11.3371 12.3693 10.8916 11.8735 10.8647C11.0501 10.8233 10.6377 11.4259 10.4615 11.6837C10.2373 12.0115 10.3212 12.4589 10.649 12.6831C10.9768 12.9073 11.4241 12.8233 11.6484 12.4956C11.7266 12.3812 11.7713 12.3292 11.7968 12.3065C12.2004 12.4358 13.3513 13.2813 13.5584 13.6054C13.5635 13.6261 13.5647 13.6576 13.5455 13.715C13.4548 13.9843 13.2779 14.3368 12.9506 14.4869C12.6439 14.6273 12.2954 14.5412 12.0575 14.4444C10.5384 13.8251 9.21209 12.9618 8.12156 11.8846C7.03821 10.7881 6.17496 9.46182 5.55598 7.94326C5.45896 7.70476 5.37278 7.35611 5.51322 7.04973C5.66325 6.72236 6.01583 6.5454 6.28425 6.45491C6.34157 6.43573 6.37311 6.43679 6.39497 6.44206C6.71908 6.6496 7.56411 7.79976 7.69353 8.20343C7.67071 8.22865 7.61885 8.27341 7.50449 8.35154Z" fill="white"/>
</svg>
