<svg width="21" height="21" viewBox="0 0 21 21" fill="none" xmlns="http://www.w3.org/2000/svg">
<path fill-rule="evenodd" clip-rule="evenodd" d="M21 10.2296C21 15.8793 16.3849 20.4591 10.6909 20.4591C8.88323 20.4591 7.18503 19.9971 5.70757 19.1863L0 21L1.86083 15.5115C0.922133 13.9701 0.3815 12.1623 0.3815 10.2296C0.3815 4.57987 4.99707 0 10.6909 0C16.3854 0 21 4.57987 21 10.2296ZM10.6909 1.62913C5.91127 1.62913 2.02347 5.4873 2.02347 10.2296C2.02347 12.1114 2.6369 13.8542 3.67453 15.2719L2.59163 18.466L5.92247 17.4074C7.29097 18.3059 8.93037 18.83 10.6911 18.83C15.47 18.83 19.3585 14.9723 19.3585 10.23C19.3585 5.48777 15.4702 1.62913 10.6909 1.62913ZM15.5492 12.3594C15.726 12.4441 15.8454 12.5014 15.8968 12.5855C15.9595 12.6901 15.9595 13.192 15.7495 13.7781C15.5381 14.3633 14.5063 14.928 14.0434 14.9697C13.964 14.9769 13.8983 14.9927 13.8308 15.0089C13.5046 15.0872 13.14 15.1747 11.0108 14.343C8.63667 13.4151 7.07181 11.1121 6.74841 10.6361C6.72186 10.5971 6.70368 10.5703 6.6941 10.5576L6.69368 10.5571C6.56542 10.388 5.6623 9.19712 5.6623 7.9646C5.6623 6.81031 6.23368 6.20493 6.4968 5.92616C6.51488 5.907 6.53151 5.88938 6.5464 5.87323C6.7781 5.6224 7.05203 5.55963 7.2205 5.55963C7.30757 5.55963 7.3947 5.56524 7.4789 5.57066C7.55761 5.57573 7.63376 5.58063 7.7049 5.58063C7.72257 5.58063 7.74113 5.57944 7.76048 5.57819C7.9029 5.56902 8.08801 5.5571 8.2733 5.99877C8.34076 6.1597 8.43856 6.39581 8.5424 6.64649C8.76254 7.17795 9.00983 7.77493 9.05263 7.86007C9.1161 7.98583 9.15833 8.13213 9.07363 8.29943C9.0616 8.3235 9.05043 8.34626 9.03975 8.36803C8.97605 8.4978 8.92967 8.59231 8.82117 8.7178C8.77933 8.76628 8.73609 8.81851 8.69282 8.87076C8.60553 8.97619 8.51813 9.08174 8.442 9.15693C8.31577 9.28177 8.18393 9.41733 8.33117 9.66817C8.47863 9.91947 8.9859 10.7399 9.737 11.4044C10.545 12.1192 11.247 12.4214 11.6025 12.5744C11.6717 12.6042 11.7277 12.6283 11.7689 12.6488C12.0218 12.7743 12.169 12.7533 12.3165 12.5855C12.4642 12.4182 12.9486 11.8538 13.1168 11.6027C13.2851 11.3519 13.454 11.3939 13.6857 11.4774C13.9167 11.5607 15.1594 12.1676 15.4124 12.2929C15.4612 12.3172 15.5068 12.339 15.5492 12.3594Z" fill="white"/>
</svg>
