<svg width="156" height="44" viewBox="0 0 156 44" fill="none" xmlns="http://www.w3.org/2000/svg">
<path d="M38.12 37.5399C33.88 41.7399 28.72 43.8399 22.6401 43.8399C16.5601 43.8399 11.4 41.7399 7.16005 37.5399C2.92005 33.3399 0.800049 28.1599 0.800049 21.9999C0.800049 15.8399 2.92005 10.6599 7.16005 6.45991C11.4 2.25991 16.5601 0.159912 22.6401 0.159912C28.72 0.159912 33.88 2.25991 38.12 6.45991C42.36 10.6599 44.48 15.8399 44.48 21.9999C44.48 28.1599 42.36 33.3399 38.12 37.5399ZM13.88 30.9999C16.24 33.3199 19.1601 34.4799 22.6401 34.4799C26.1201 34.4799 29.0201 33.3199 31.3401 30.9999C33.7001 28.6799 34.8801 25.6799 34.8801 21.9999C34.8801 18.3199 33.7001 15.3199 31.3401 12.9999C29.0201 10.6799 26.1201 9.51991 22.6401 9.51991C19.1601 9.51991 16.24 10.6799 13.88 12.9999C11.56 15.3199 10.4 18.3199 10.4 21.9999C10.4 25.6799 11.56 28.6799 13.88 30.9999Z" fill="white" fill-opacity="0.12653"/>
<path d="M75.3852 10.2399H59.4852V18.3399H75.0852V27.5799H59.4852V42.9999H49.8852V0.999912H75.3852V10.2399Z" fill="white" fill-opacity="0.12653"/>
<path d="M97.8571 0.999912C103.657 0.999912 108.497 3.01991 112.377 7.05991C116.297 11.0599 118.257 16.0399 118.257 21.9999C118.257 27.9599 116.297 32.9599 112.377 36.9999C108.497 40.9999 103.657 42.9999 97.8571 42.9999H81.0571V0.999912H97.8571ZM97.8571 33.7599C101.177 33.7599 103.857 32.6999 105.897 30.5799C107.977 28.4199 109.017 25.5599 109.017 21.9999C109.017 18.4399 107.977 15.5999 105.897 13.4799C103.857 11.3199 101.177 10.2399 97.8571 10.2399H90.6571V33.7599H97.8571Z" fill="white" fill-opacity="0.12653"/>
<path d="M150.902 39.9399C147.862 42.5399 143.982 43.8399 139.262 43.8399C134.542 43.8399 130.662 42.5399 127.622 39.9399C124.582 37.3399 123.062 33.8399 123.062 29.4399V0.999912H132.662V28.5999C132.662 32.5199 134.862 34.4799 139.262 34.4799C143.662 34.4799 145.862 32.5199 145.862 28.5999V0.999912H155.462V29.4399C155.462 33.8399 153.942 37.3399 150.902 39.9399Z" fill="white" fill-opacity="0.12653"/>
</svg>
